HIERARCHY
ROOT hip
{
	OFFSET 0.000000 0.000000 0.000000 
	CHANNELS 6 Xposition Yposition Zposition Xrotation Zrotation Yrotation
	JOINT abdomen
	{
		OFFSET 0.000000 3.402643 0.000000 
		CHANNELS 3 Xrotation Zrotation Yrotation
		JOINT chest
		{
			OFFSET 0.000000 8.438565 -0.680529 
			CHANNELS 3 Xrotation Zrotation Yrotation
			JOINT neck
			{
				OFFSET 0.000000 10.207942 -0.272212 
				CHANNELS 3 Xrotation Zrotation Yrotation
				JOINT head
				{
					OFFSET 0.000000 3.130431 0.000000 
					CHANNELS 3 Xrotation Zrotation Yrotation
					End Site
					{
						OFFSET 0.000000 3.130435 0.000000 
					}
				}
			}
			JOINT lCollar
			{
				OFFSET 3.470700 6.669187 -0.816635 
				CHANNELS 3 Yrotation Zrotation Xrotation
				JOINT lShldr
				{
					OFFSET 3.198488 0.000000 0.000000 
					CHANNELS 3 Zrotation Yrotation Xrotation
					JOINT lForeArm
					{
						OFFSET 10.139888 0.000000 0.000000 
						CHANNELS 3 Yrotation Zrotation Xrotation
						JOINT lHand
						{
							OFFSET 8.370511 0.000000 0.000000 
							CHANNELS 3 Zrotation Yrotation Xrotation
							End Site
							{
								OFFSET 4.083176 0.000000 0.000000 
							}
						}
					}
				}
			}
			JOINT rCollar
			{
				OFFSET -3.470700 6.669187 -0.816635 
				CHANNELS 3 Yrotation Zrotation Xrotation
				JOINT rShldr
				{
					OFFSET -3.198488 0.000000 0.000000 
					CHANNELS 3 Zrotation Yrotation Xrotation
					JOINT rForeArm
					{
						OFFSET -10.139888 0.000000 0.000000 
						CHANNELS 3 Yrotation Zrotation Xrotation
						JOINT rHand
						{
							OFFSET -8.370511 0.000000 0.000000 
							CHANNELS 3 Zrotation Yrotation Xrotation
							End Site
							{
								OFFSET -4.083176 0.000000 0.000000 
							}
						}
					}
				}
			}
		}
	}
	JOINT lThigh
	{
		OFFSET 5.308129 -1.633274 1.361059 
		CHANNELS 3 Xrotation Zrotation Yrotation
		JOINT lShin
		{
			OFFSET -2.041588 -20.007561 0.000000 
			CHANNELS 3 Xrotation Zrotation Yrotation
			JOINT lFoot
			{
				OFFSET 0.000000 -19.190928 -1.224953 
				CHANNELS 3 Xrotation Yrotation Zrotation
				End Site
				{
					OFFSET 0.000000 -2.449906 4.627600 
				}
			}
		}
	}
	JOINT rThigh
	{
		OFFSET -5.308129 -1.633274 1.361059 
		CHANNELS 3 Xrotation Zrotation Yrotation
		JOINT rShin
		{
			OFFSET 2.041588 -20.007561 0.000000 
			CHANNELS 3 Xrotation Zrotation Yrotation
			JOINT rFoot
			{
				OFFSET 0.000000 -19.190928 -1.224953 
				CHANNELS 3 Xrotation Yrotation Zrotation
				End Site
				{
					OFFSET 0.000000 -2.449906 4.627600 
				}
			}
		}
	}
}
MOTION
Frames: 20
Frame Time: 0.033333
0.237618 49.790184 -0.548680 -4.228824 0.691472 0.612939 0.000000 0.000000 0.000000 0.019531 0.234375 1.836057 3.215382 -0.389748 2.108240 5.742159 0.253590 0.426778 1.478993 10.563770 -2.400830 5.832901 2.878150 -21.839638 -6.333403 -6.531446 2.805411 7.631806 -5.569716 -2.517882 0.097784 -10.128108 -2.392180 -4.223782 -20.941454 -8.111009 8.560927 5.490244 2.743272 -16.824688 2.647891 -3.160417 7.300454 7.789927 3.858633 3.532916 -3.825648 16.648283 -4.390715 -0.049815 1.271918 7.699926 -9.418838 -5.493721 3.025926 3.844855 -0.779859 -0.779040 -0.047663 5.290166 
0.221257 49.795975 -0.534435 -4.287396 0.662204 0.565594 0.000000 0.000000 0.000000 0.058594 0.244140 1.865525 3.298489 -0.462442 2.186056 5.800663 0.526713 0.325777 1.571989 10.511904 -2.350110 5.720435 2.671455 -22.087893 -6.399347 -6.423305 2.799312 7.612310 -5.717830 -2.400126 0.176381 -10.277829 -2.327899 -3.889089 -20.882330 -8.471586 8.489215 5.368038 2.735117 -16.775036 3.033504 -2.953513 7.328388 7.817317 3.901927 3.647326 -3.770245 16.777336 -4.438478 -0.033079 1.268599 7.869764 -9.363970 -5.438445 2.770176 3.793294 -0.944765 -0.624377 -0.051678 5.306908 
0.222266 49.783520 -0.513608 -4.287355 0.613513 0.481353 0.000000 0.000000 0.000000 0.039063 0.263672 1.914287 3.269013 -0.407098 2.220498 5.947177 0.468246 0.310308 1.624681 10.518615 -2.378902 5.751927 2.584905 -21.919607 -6.549000 -6.524580 2.805694 7.894258 -5.092149 -2.647665 0.280245 -10.214270 -2.351319 -3.908571 -20.862633 -8.490067 8.499311 5.377454 2.733193 -16.671398 3.090177 -2.656615 7.244804 7.889980 3.930717 3.913733 -3.748660 16.797750 -4.591674 -0.043997 1.126683 7.802026 -9.306064 -5.350293 2.907505 3.765074 -0.944992 -0.738035 -0.050687 5.319704 
0.244539 49.777729 -0.510009 -4.258090 0.652491 0.576423 0.000000 0.000000 0.000000 0.039063 0.253906 1.884982 3.185037 -0.328675 2.076272 6.015610 0.195113 0.342744 1.537784 10.678377 -2.387182 5.444456 2.496255 -22.188231 -6.486897 -6.391836 2.794326 7.603717 -5.444352 -2.310830 0.271486 -9.969226 -2.377155 -4.177491 -20.813005 -8.447717 8.548659 5.394895 2.737039 -16.748989 2.947308 -2.972244 7.302650 7.840049 3.884672 3.699340 -3.778337 16.724916 -4.494726 -0.042980 1.094983 7.702175 -9.392542 -5.489858 3.141196 3.891181 -0.780774 -0.914444 -0.047175 5.250776 
0.241898 49.784016 -0.503805 -4.277622 0.652474 0.546904 0.000000 0.000000 0.000000 0.068360 0.234375 1.894851 3.232820 -0.331080 2.124186 5.976535 0.263395 0.310181 1.562288 10.795426 -2.334769 5.327199 2.409195 -22.164169 -6.409168 -6.423049 2.798457 7.454449 -5.561962 -2.332838 0.333299 -10.069203 -2.316883 -3.913190 -20.753799 -8.765899 8.477280 5.282351 2.727509 -16.499809 3.024583 -2.541774 7.361588 7.840394 3.894503 3.667511 -3.742989 16.786242 -4.483518 -0.035062 1.119510 7.779664 -9.371312 -5.448480 3.015464 3.853643 -0.839030 -0.824264 -0.057623 5.255680 
0.236864 49.779499 -0.495008 -4.326412 0.603744 0.510968 0.000000 0.000000 0.000000 0.117189 0.263671 1.934178 3.288081 -0.398913 2.243525 5.927687 0.341424 0.286778 1.626563 10.579163 -2.260123 5.511187 2.280737 -22.221844 -6.448732 -6.431744 2.794142 7.717199 -5.524864 -2.288119 0.422768 -10.120848 -2.239983 -3.942634 -20.743830 -8.783952 8.477905 5.310805 2.733518 -16.359324 3.113344 -3.161171 7.288275 7.865479 3.908393 3.950831 -3.744272 16.814484 -4.641139 -0.032877 1.089163 7.818294 -9.342118 -5.415358 2.997096 3.806924 -0.909120 -0.804018 -0.039426 5.325191 
0.226921 49.786545 -0.502106 -4.287311 0.555083 0.534561 0.000000 0.000000 0.000000 0.146486 0.302733 1.944185 3.144134 -0.529106 2.373199 6.074039 0.682928 0.194443 1.674391 10.450587 -2.255324 5.557144 2.191200 -22.374773 -6.495879 -6.362419 2.796188 7.772017 -5.609289 -2.261391 0.395764 -10.266548 -2.229859 -3.762876 -20.714937 -8.831401 8.517108 5.309749 2.730854 -16.469105 3.007277 -3.067897 7.582616 7.944890 4.027405 3.288825 -3.815914 16.744390 -4.328332 -0.040089 1.085056 7.899055 -9.266823 -5.395803 2.711735 3.823107 -1.007309 -0.616946 -0.035652 5.302471 
0.253600 49.788681 -0.498381 -4.277553 0.564829 0.592521 0.000000 0.000000 0.000000 0.175785 0.380858 1.915296 3.106510 -0.722313 2.427315 6.152153 0.712238 0.164824 1.611114 9.964855 -2.258023 5.932261 2.156577 -22.726355 -6.492496 -6.227527 2.790422 7.493569 -5.559357 -2.032165 0.305521 -10.478025 -2.227163 -3.731824 -20.646374 -8.891054 8.604771 5.297097 2.735873 -16.391432 2.885736 -3.337986 7.278055 7.874670 3.870067 3.796592 -3.729234 16.777386 -4.562635 -0.043795 1.116072 7.826893 -9.321533 -5.502023 2.897785 3.882190 -0.964316 -0.655954 -0.040292 5.301361 
0.258006 49.783768 -0.500332 -4.345914 0.564778 0.640676 0.000000 0.000000 0.000000 0.253912 0.400387 1.847546 3.240782 -0.840103 2.414044 6.015379 0.790209 0.140067 1.589009 9.587204 -2.166944 6.312236 2.173312 -22.785097 -6.444238 -6.257958 2.791846 7.627211 -5.501510 -2.283499 0.275767 -10.739247 -2.108025 -3.539893 -20.470438 -9.049056 8.360543 5.314553 2.731771 -16.703558 3.126956 -2.696889 7.368108 7.848198 3.826654 3.754587 -3.723558 16.711958 -4.554499 -0.051035 1.081147 7.829885 -9.343843 -5.514566 3.075012 3.845450 -0.912952 -0.751585 -0.047233 5.352679 
0.256620 49.781754 -0.493083 -4.277560 0.574567 0.611324 0.000000 0.000000 0.000000 0.185551 0.361326 1.846935 3.394568 -0.941958 2.524355 5.975986 1.199909 0.120732 1.485714 9.521855 -2.210658 6.630619 2.330508 -22.467817 -6.360595 -6.434641 2.792107 7.663117 -5.596989 -2.119034 0.296574 -10.740555 -2.150077 -3.511657 -20.549061 -8.972784 8.546514 5.308957 2.728856 -16.800352 3.109961 -2.710696 7.223985 7.869588 3.868870 3.971909 -3.737338 16.744946 -4.671223 -0.050083 1.103146 7.767653 -9.330546 -5.472847 3.091184 3.821623 -1.019111 -0.785773 -0.055653 5.360470 
0.260018 49.791191 -0.496921 -4.277553 0.564829 0.621818 0.000000 0.000000 0.000000 0.214849 0.390622 1.817937 3.356879 -0.910724 2.507619 6.083633 0.956106 0.211837 1.517835 9.492137 -2.176227 6.612206 2.341008 -22.400162 -6.351353 -6.463470 2.800071 7.796184 -5.676187 -2.263379 0.317857 -10.877395 -2.101700 -3.555962 -20.452583 -8.713089 8.423629 5.484904 2.744524 -17.063660 3.090335 -2.965681 7.302289 7.879342 3.899742 3.793963 -3.781162 16.766464 -4.569250 -0.029187 1.175333 7.908873 -9.344632 -5.515589 2.758416 3.839018 -1.091540 -0.561132 -0.044915 5.381639 
0.265556 49.793713 -0.497110 -4.297092 0.574552 0.581831 0.000000 0.000000 0.000000 0.253912 0.400387 1.847546 3.460165 -0.990506 2.584404 6.220351 0.985475 0.193370 1.602232 9.195972 -2.187674 6.912961 2.182233 -22.461723 -6.225879 -6.544576 2.804420 7.857504 -5.711235 -2.149262 0.428187 -11.076868 -2.085412 -3.406658 -20.550591 -8.743679 8.393291 5.447561 2.741786 -17.169468 3.062848 -2.882185 7.361641 7.840480 3.874712 3.708329 -3.786122 16.811859 -4.539427 -0.041573 1.212370 7.869033 -9.363022 -5.527600 2.798928 3.810749 -1.137713 -0.514593 -0.046878 5.400998 
0.275496 49.782642 -0.492693 -4.228751 0.603821 0.638951 0.000000 0.000000 0.000000 0.195316 0.351560 1.837196 3.556006 -0.802469 2.448781 6.230319 0.643979 0.315110 1.517279 9.764783 -2.220302 6.299159 2.235569 -22.395697 -6.312899 -6.493660 2.800902 7.773990 -5.638520 -2.399069 0.417536 -10.676321 -2.136891 -3.813216 -20.578306 -8.779496 8.430990 5.388992 2.736701 -16.968609 2.999497 -3.029924 7.310768 7.858860 3.907128 3.667713 -3.802193 16.716763 -4.511808 -0.022783 1.124823 7.692712 -9.362790 -5.485656 3.104400 3.835960 -1.008510 -0.789301 -0.040010 5.345653 
0.276630 49.787170 -0.488892 -4.287355 0.613513 0.608306 0.000000 0.000000 0.000000 0.234379 0.351560 1.847201 3.623749 -0.829321 2.437849 6.357280 0.644036 0.277475 1.606391 9.664454 -2.194043 6.324635 2.126127 -22.598631 -6.340399 -6.415708 2.795576 7.620057 -5.541137 -2.292756 0.446525 -10.657346 -2.096058 -3.904846 -20.568834 -8.657998 8.373979 5.457776 2.741939 -17.103395 3.097162 -3.240717 7.535730 7.829235 3.922736 3.354967 -3.819161 16.719746 -4.384733 -0.047262 1.166997 7.763181 -9.394981 -5.520386 3.052619 3.840127 -1.070522 -0.716631 -0.043431 5.384933 
0.279272 49.787800 -0.481506 -4.306872 0.594021 0.619329 0.000000 0.000000 0.000000 0.253912 0.390621 1.847501 3.699235 -0.873225 2.507941 6.298619 0.770860 0.271711 1.609114 9.556983 -2.183775 6.474635 2.137006 -22.376036 -6.314592 -6.561127 2.804541 7.668300 -5.528130 -2.637119 0.449881 -10.803988 -2.091802 -3.536805 -20.567181 -9.225326 8.416368 5.197962 2.723993 -16.918547 3.248049 -2.696124 7.181906 7.866392 3.938163 4.097720 -3.822894 16.723938 -4.744450 -0.041859 1.234236 7.791410 -9.373257 -5.527878 3.013431 3.810392 -1.210184 -0.653924 -0.045805 5.403852 
0.282291 49.786419 -0.481908 -4.248283 0.603805 0.619214 0.000000 0.000000 0.000000 0.205082 0.351560 1.847021 3.790238 -0.819104 2.560056 6.327858 0.878213 0.345966 1.644710 9.759918 -2.217031 6.209666 2.098907 -22.448154 -6.332266 -6.483427 2.800043 7.724350 -5.485236 -2.248631 0.480796 -10.649140 -2.129008 -3.751553 -20.568186 -8.889699 8.341852 5.353223 2.737961 -17.013332 3.466218 -2.505154 7.220196 7.846477 3.925751 3.929886 -3.821095 16.687321 -4.675427 -0.028752 1.218346 7.761174 -9.372381 -5.487858 2.953704 3.771448 -1.331785 -0.643269 -0.033025 5.439977 
0.284810 49.783394 -0.480084 -4.267839 0.633006 0.685187 0.000000 0.000000 0.000000 0.205082 0.341795 1.837219 3.867435 -0.876688 2.523665 6.327834 0.917245 0.315118 1.579688 9.606276 -2.221514 6.318739 2.108956 -22.344730 -6.353888 -6.560099 2.801028 7.827317 -5.409836 -2.537461 0.474155 -10.599891 -2.124096 -3.729484 -20.655485 -9.021482 8.407763 5.246048 2.728222 -17.241077 3.625488 -2.289924 7.352653 7.821979 3.911796 3.669871 -3.846121 16.598843 -4.559499 -0.038183 1.192685 7.691117 -9.400710 -5.500913 3.190814 3.794796 -1.256320 -0.795848 -0.047901 5.415987 
0.292737 49.779865 -0.478888 -4.306880 0.603759 0.726018 0.000000 0.000000 0.000000 0.292975 0.380854 1.847716 3.785466 -0.945456 2.624680 6.386279 1.141723 0.239010 1.542082 9.296805 -2.135168 6.507985 2.045875 -22.705572 -6.222801 -6.419348 2.796078 7.545040 -5.448265 -2.092901 0.400593 -11.241574 -2.043274 -3.351408 -20.464113 -8.498559 7.987350 5.652459 2.747589 -17.286932 3.582889 -2.809493 7.185394 7.850806 3.896107 4.056742 -3.840849 16.589748 -4.725523 -0.023618 1.178289 7.684971 -9.404572 -5.540442 3.286217 3.829627 -1.229459 -0.819354 -0.052032 5.425288 
0.289340 49.784779 -0.482853 -4.306921 0.652449 0.702820 0.000000 0.000000 0.000000 0.244145 0.341794 1.827686 3.945995 -0.890017 2.581284 6.366773 1.102675 0.318270 1.497130 9.571890 -2.129064 6.219003 2.157000 -22.497005 -6.350797 -6.444026 2.801829 7.779082 -5.422852 -2.359123 0.564860 -10.494280 -2.040339 -3.791271 -20.724203 -8.908140 8.389073 5.284714 2.733461 -17.000105 3.682647 -2.338526 7.263946 7.782848 3.857445 3.951298 -3.803029 16.666798 -4.695662 -0.044069 1.233110 7.810719 -9.431722 -5.585690 3.085490 3.817126 -1.283283 -0.734678 -0.048879 5.435481 
0.287325 49.785152 -0.484211 -4.385017 0.613434 0.753745 0.000000 0.000000 0.000000 0.322274 0.410150 1.867611 3.849554 -1.029273 2.644742 6.464327 1.258888 0.177601 1.550516 9.228997 -2.084188 6.397108 1.908262 -22.875820 -6.231503 -6.371067 2.789778 7.755003 -5.502762 -2.514775 0.532277 -10.707904 -1.989172 -3.610046 -20.782721 -9.047387 8.348348 5.219151 2.726076 -16.858423 3.624653 -2.362204 7.307127 7.836070 3.894730 3.960090 -3.832378 16.616631 -4.677352 -0.053992 1.218196 7.781089 -9.393150 -5.550352 3.208305 3.782515 -1.401419 -0.734168 -0.045873 5.457555 
